  <svg
    xmlns="http://www.w3.org/2000/svg"
    enable-background="new 0 0 39.5 50.5"
    viewBox="0 0 39.5 50.5"
    width="27"
    height="27"
  >
    <path
    fill="#9b1373"
      d="M1087.4,1218.5c-0.6,0-1.2,0-1.7,0c-2.8-0.3-4.9-1.6-5.6-4.4c-0.5-2.1-0.6-4.2-0.7-6.4				c-0.2-4.4-2.4-6.7-6.5-6.7c-4.1,0-6.4,2.4-6.6,6.8c-0.1,1.4-0.1,2.9-0.2,4.3c-0.1,3.9-2.5,6.2-6.4,6.3c-3.9,0.1-6.5-2.2-6.5-6.1
				c-0.1-11.4-0.3-22.7-0.1-34.1c0.1-7.1,6-11.4,12.9-9.7c4.6,1.1,9.3,1.1,13.9-0.1c6.5-1.6,12.6,2.7,12.6,9.4
				c0.1,11.1,0,22.1,0,33.2C1092.5,1214.6,1091.3,1217.4,1087.4,1218.5z"
      transform="translate(-1053 -1168)"
      class="colora23089 svgShape"
    ></path>
  </svg>